<?xml version="1.0" encoding="UTF-8"?>
<svg version="1.1" xmlns="http://www.w3.org/2000/svg" width="1080" height="1080">
<path d="M0 0 C356.4 0 712.8 0 1080 0 C1080 356.4 1080 712.8 1080 1080 C723.6 1080 367.2 1080 0 1080 C0 723.6 0 367.2 0 0 Z " fill="#FEFEFE" transform="translate(0,0)"/>
<path d="M0 0 C350.94208494 0 350.94208494 0 415 47 C415.5249707 47.38510742 416.04994141 47.77021484 416.59082031 48.16699219 C424.09227327 53.70848732 431.22982432 59.57806331 438 66 C438.48936035 66.45681152 438.9787207 66.91362305 439.48291016 67.38427734 C472.87574815 98.71801166 490.952908 141.47546807 500.45507812 185.50463867 C500.79686042 187.06976269 501.14825942 188.63285067 501.51367188 190.19262695 C507.13043921 214.27589355 507.4123592 238.77176941 507.43434906 263.36281967 C507.4374599 265.59620921 507.44591527 267.82952603 507.4553833 270.06289673 C507.51643235 287.90564345 506.77469025 305.33643216 504 323 C503.81638916 324.26263672 503.63277832 325.52527344 503.44360352 326.82617188 C502.4409743 333.5748177 501.24142975 340.29157603 500 347 C499.8654541 347.73669922 499.7309082 348.47339844 499.59228516 349.23242188 C494.13533323 378.03184879 482.16573223 408.1946265 465 432 C464.55188965 432.63164063 464.1037793 433.26328125 463.64208984 433.9140625 C456.75272561 443.57549241 449.36924605 452.58494674 441 461 C440.50983398 461.49419434 440.01966797 461.98838867 439.51464844 462.49755859 C425.92630179 476.01026612 410.25516909 487.14541178 393.21533203 495.86621094 C391.77043574 496.60569721 390.33095507 497.35589149 388.89794922 498.11816406 C367.1064968 509.67848119 342.1275548 517.19747222 318 522 C317.1661377 522.1757959 316.33227539 522.3515918 315.47314453 522.53271484 C298.20731558 526.13666822 280.7460083 527.39581518 263.18847656 528.67456055 C258.1216813 529.06824428 253.06119562 529.53989131 248 530 C166.16 530 84.32 530 0 530 C0 355.1 0 180.2 0 0 Z " fill="#21180C" transform="translate(305,267)"/>
<path d="M0 0 C350.94208494 0 350.94208494 0 415 47 C415.5249707 47.38510742 416.04994141 47.77021484 416.59082031 48.16699219 C424.09227327 53.70848732 431.22982432 59.57806331 438 66 C438.48936035 66.45681152 438.9787207 66.91362305 439.48291016 67.38427734 C472.87574815 98.71801166 490.952908 141.47546807 500.45507812 185.50463867 C500.79686042 187.06976269 501.14825942 188.63285067 501.51367188 190.19262695 C507.13043921 214.27589355 507.4123592 238.77176941 507.43434906 263.36281967 C507.4374599 265.59620921 507.44591527 267.82952603 507.4553833 270.06289673 C507.51643235 287.90564345 506.77469025 305.33643216 504 323 C503.81638916 324.26263672 503.63277832 325.52527344 503.44360352 326.82617188 C502.4409743 333.5748177 501.24142975 340.29157603 500 347 C499.8654541 347.73669922 499.7309082 348.47339844 499.59228516 349.23242188 C494.13533323 378.03184879 482.16573223 408.1946265 465 432 C464.55188965 432.63164063 464.1037793 433.26328125 463.64208984 433.9140625 C456.75272561 443.57549241 449.36924605 452.58494674 441 461 C440.50983398 461.49419434 440.01966797 461.98838867 439.51464844 462.49755859 C425.92630179 476.01026612 410.25516909 487.14541178 393.21533203 495.86621094 C391.77043574 496.60569721 390.33095507 497.35589149 388.89794922 498.11816406 C367.1064968 509.67848119 342.1275548 517.19747222 318 522 C317.1661377 522.1757959 316.33227539 522.3515918 315.47314453 522.53271484 C298.20731558 526.13666822 280.7460083 527.39581518 263.18847656 528.67456055 C258.1216813 529.06824428 253.06119562 529.53989131 248 530 C166.16 530 84.32 530 0 530 C0 355.1 0 180.2 0 0 Z M86.72363281 141.12402344 C82.11438707 146.14065861 77.99557685 151.48891333 74 157 C73.60039062 157.53931152 73.20078125 158.07862305 72.7890625 158.63427734 C41.01556034 201.89452355 27.93579435 258.20499016 35.6875 311.125 C42.02698177 350.7040805 58.42609172 387.81638806 85 418 C85.53044922 418.60344238 86.06089844 419.20688477 86.60742188 419.82861328 C92.36212185 426.32114046 98.24578192 432.53229965 105 438 C106.09897118 438.91144285 107.19792816 439.82290281 108.296875 440.734375 C143.21156195 469.44324148 187.35206556 488.79407617 233.07421875 489.23828125 C234.33103203 489.25304001 234.33103203 489.25304001 235.61323547 489.26809692 C253.10391318 489.43134096 269.98580019 489.53690829 287 485 C288.01433105 484.7426709 289.02866211 484.4853418 290.07373047 484.22021484 C308.75923228 479.45176641 325.95455722 473.00137995 343 464 C343.89501221 463.53255371 343.89501221 463.53255371 344.80810547 463.05566406 C393.16120164 437.56407361 426.89559065 391.14167442 443.2421875 339.8515625 C445.65473108 332.00503952 447.60657015 324.09002631 449 316 C449.17587646 315.02643555 449.35175293 314.05287109 449.53295898 313.04980469 C451.2019612 302.85323268 451.35765526 292.8107336 451.3125 282.5 C451.31034485 281.6157132 451.3081897 280.73142639 451.30596924 279.82034302 C451.25335647 266.36227147 450.85625564 253.20087964 448 240 C447.80132324 239.08089844 447.60264648 238.16179687 447.39794922 237.21484375 C439.42007092 201.69386353 423.24453836 169.16957411 399 142 C398.53029785 141.46858398 398.0605957 140.93716797 397.57666016 140.38964844 C392.0641596 134.16858576 386.46348564 128.25090542 380 123 C379.2272876 122.35877197 379.2272876 122.35877197 378.43896484 121.70458984 C346.55561376 95.26190041 307.77148935 76.41401596 266 73 C264.88625 72.89171875 263.7725 72.7834375 262.625 72.671875 C195.39884995 66.86598022 132.87367349 92.49146309 86.72363281 141.12402344 Z " fill="#212121" transform="translate(305,267)"/>
<path d="M0 0 C89.91279718 0 89.91279718 0 112.5 10.6875 C113.2326709 11.03345215 113.9653418 11.3794043 114.72021484 11.73583984 C120.85729602 14.73724551 125.91570286 18.43766492 131 23 C131.59554687 23.4434375 132.19109375 23.886875 132.8046875 24.34375 C152.4185152 39.16710365 159.59349753 67.42829334 162.99755859 90.41749573 C164.79301068 104.32431203 164.52375376 118.41000333 164.50097656 132.40698242 C164.49628197 135.74491585 164.510036 139.08189541 164.54199219 142.41967773 C164.88507926 178.71198232 163.18922161 217.3653026 138 246 C137.00033203 247.14275391 137.00033203 247.14275391 135.98046875 248.30859375 C118.36517455 267.16578253 94.59067906 272.1172612 70 276 C46.9 276 23.8 276 0 276 C0 184.92 0 93.84 0 0 Z " fill="#FEBC58" transform="translate(475,394)"/>
</svg>
