<?xml version="1.0" encoding="UTF-8"?>
<svg version="1.1" xmlns="http://www.w3.org/2000/svg" width="250" height="100">
<path d="M0 0 C82.5 0 165 0 250 0 C250 33 250 66 250 100 C167.5 100 85 100 0 100 C0 67 0 34 0 0 Z " fill="#FDFDFD" transform="translate(0,0)"/>
<path d="M0 0 C6.66701596 3.94941326 11.14478719 9.6893362 13.48828125 17.08984375 C14.94546782 25.46866653 12.21892988 32.20170265 7.48828125 39.08984375 C3.77421395 43.39880494 -0.01746957 45.07190968 -5.625 45.58203125 C-7.12810757 45.64807317 -8.63233204 45.69216048 -10.13671875 45.71484375 C-10.8531958 45.72612305 -11.56967285 45.73740234 -12.30786133 45.74902344 C-18.54730166 45.57928189 -22.72465962 43.56597336 -27.4375 39.37890625 C-27.89511719 38.82976562 -28.35273437 38.280625 -28.82421875 37.71484375 C-29.52998047 36.89886719 -29.52998047 36.89886719 -30.25 36.06640625 C-34.34463501 29.65190063 -34.22126399 22.42779894 -33.51171875 15.08984375 C-31.85414729 8.96576235 -27.86496041 4.41181585 -22.51171875 1.08984375 C-15.58583561 -1.7250054 -7.13293588 -2.5847186 0 0 Z " fill="#060606" transform="translate(80.51171875,26.91015625)"/>
<path d="M0 0 C23.41531323 0 23.41531323 0 29.9296875 5.68359375 C31.46956812 7.39661885 32.77397834 9.05203528 34 11 C34.37253906 11.58265625 34.74507812 12.1653125 35.12890625 12.765625 C37.36075009 18.49035449 36.86065441 26.63468665 35.34765625 32.55078125 C33.15040537 37.40736581 29.51668672 41.19715488 25 44 C19 46 19 46 0 46 C0 30.82 0 15.64 0 0 Z " fill="#070707" transform="translate(3,26)"/>
<path d="M0 0 C4.64761402 1.16190351 5.58584016 2.34879734 8.6875 5.875 C9.55632812 6.85984375 10.42515625 7.8446875 11.3203125 8.859375 C14.71368961 12.80884086 18.01763756 16.8285626 21.28515625 20.8828125 C22.82726076 22.86206774 22.82726076 22.86206774 24 24 C24.33 16.08 24.66 8.16 25 0 C28.3 0 31.6 0 35 0 C35 15.51 35 31.02 35 47 C31.0020289 46.00050722 30.3670916 45.72961986 27.79296875 42.90234375 C27.20580078 42.26490234 26.61863281 41.62746094 26.01367188 40.97070312 C25.41103516 40.29974609 24.80839844 39.62878906 24.1875 38.9375 C23.59646484 38.29361328 23.00542969 37.64972656 22.39648438 36.98632812 C18.19050369 32.38589341 14.10631231 27.69292836 10 23 C9.67 30.59 9.34 38.18 9 46 C6.03 46 3.06 46 0 46 C0 30.82 0 15.64 0 0 Z " fill="#090909" transform="translate(212,26)"/>
<path d="M0 0 C2.97 0 5.94 0 9 0 C9.33 5.61 9.66 11.22 10 17 C10.71027344 15.85660156 11.42054687 14.71320312 12.15234375 13.53515625 C13.08065835 12.04422674 14.00904762 10.55334372 14.9375 9.0625 C15.40607422 8.30775391 15.87464844 7.55300781 16.35742188 6.77539062 C16.80537109 6.05673828 17.25332031 5.33808594 17.71484375 4.59765625 C18.33540649 3.60004272 18.33540649 3.60004272 18.96850586 2.58227539 C20 1 20 1 21 0 C22.68608966 -0.07205511 24.37500659 -0.08386068 26.0625 -0.0625 C26.98160156 -0.05347656 27.90070313 -0.04445313 28.84765625 -0.03515625 C29.55792969 -0.02355469 30.26820313 -0.01195313 31 0 C29.89894955 3.38371603 28.32448128 6.11910917 26.328125 9.03125 C25.82925781 9.75957031 25.33039063 10.48789062 24.81640625 11.23828125 C23.7670448 12.75344404 22.70699602 14.2612574 21.63671875 15.76171875 C18.72514143 19.77907491 18.72514143 19.77907491 18.2890625 24.48828125 C18.85367188 25.31714844 19.41828125 26.14601563 20 27 C20.43248047 27.64050293 20.86496094 28.28100586 21.31054688 28.94091797 C22.8772475 31.21952493 24.49296499 33.45528506 26.125 35.6875 C27.23603515 37.2091351 28.34302759 38.733733 29.4453125 40.26171875 C29.93531738 40.93162842 30.42532227 41.60153809 30.93017578 42.29174805 C32 44 32 44 32 46 C27.9773986 47.12041509 24.98959525 47.33313257 21 46 C16.38072125 41.46809015 13.21015836 35.5634466 10 30 C9.67 35.28 9.34 40.56 9 46 C6.03 46 3.06 46 0 46 C0 30.82 0 15.64 0 0 Z " fill="#080808" transform="translate(102,26)"/>
<path d="M0 0 C0.66 0 1.32 0 2 0 C4.24230792 5.4625303 6.4843246 10.92518001 8.72607422 16.38793945 C9.48836437 18.24539401 10.25073339 20.10281621 11.01318359 21.96020508 C12.11056032 24.63354068 13.20765117 27.30699345 14.3046875 29.98046875 C14.6443454 30.80773972 14.9840033 31.63501068 15.33395386 32.48735046 C15.95774239 34.00781663 16.57993602 35.52893863 17.20013428 37.0508728 C17.86265501 38.66531526 18.54433568 40.27187994 19.23095703 41.8762207 C20 44 20 44 20 47 C16.7 47 13.4 47 10 47 C9.505 44.525 9.505 44.525 9 42 C3.72 42 -1.56 42 -7 42 C-7.495 44.475 -7.495 44.475 -8 47 C-11.63 47 -15.26 47 -19 47 C-12.74398333 31.30118572 -6.42843598 15.6290468 0 0 Z " fill="#050505" transform="translate(185,25)"/>
<path d="M0 0 C3.10485394 2.50113234 5.46336676 5.23923352 7.25 8.8125 C7.84134971 14.7259971 6.69860888 19.04246154 3.25 23.8125 C-0.72605572 26.77142519 -4.63064629 27.45287372 -9.49609375 27.3046875 C-13.48505288 26.43361497 -16.20856429 23.92122047 -18.75 20.8125 C-20.40374596 15.85126211 -21.14878879 9.65483881 -18.7734375 4.828125 C-13.8165991 -1.3147054 -7.31232735 -3.1575959 0 0 Z " fill="#FAFAFA" transform="translate(76.75,36.1875)"/>
<path d="M0 0 C2.97 0 5.94 0 9 0 C9.09935536 4.99872122 9.17169622 9.99685955 9.21972656 14.99633789 C9.23976221 16.69468202 9.26699885 18.39295785 9.30175781 20.09106445 C9.35063415 22.5413504 9.37304872 24.9907194 9.390625 27.44140625 C9.41127014 28.19273331 9.43191528 28.94406036 9.45318604 29.71815491 C9.45550903 35.25583525 8.14348412 38.42680415 5 43 C1.1455842 46.19365881 -1.8961499 46.33648031 -6.8125 46.1875 C-8.55466797 46.14689453 -8.55466797 46.14689453 -10.33203125 46.10546875 C-11.21246094 46.07066406 -12.09289062 46.03585938 -13 46 C-13 43.03 -13 40.06 -13 37 C-7.06 36.505 -7.06 36.505 -1 36 C-0.67 24.12 -0.34 12.24 0 0 Z " fill="#050403" transform="translate(151,26)"/>
<path d="M0 0 C7.12194026 0 10.01534284 0.4993413 15.3125 4.9375 C18.30997387 8.60107918 18.35614842 12.270644 18.27734375 16.97265625 C17.8028486 20.44114895 16.28101158 22.41885532 14 25 C8.85553957 28.50758666 6.80161116 28 0 28 C0 18.76 0 9.52 0 0 Z " fill="#F3F3F3" transform="translate(12,35)"/>
<path d="M0 0 C0.99 0 1.98 0 3 0 C3.124032 5.01699904 3.21454017 10.03309682 3.2746582 15.05126953 C3.29973045 16.75650589 3.33379764 18.46163554 3.37719727 20.16650391 C3.43817566 22.62429174 3.46628112 25.08065361 3.48828125 27.5390625 C3.51408768 28.29555084 3.5398941 29.05203918 3.56648254 29.83145142 C3.56858591 33.84316232 3.18165659 36.27149502 0.62060547 39.44335938 C-2.91728067 42.8948913 -5.2141876 43.8879666 -10.11328125 44.1953125 C-11.69689453 44.16050781 -11.69689453 44.16050781 -13.3125 44.125 C-14.38113281 44.10695312 -15.44976562 44.08890625 -16.55078125 44.0703125 C-17.76314453 44.03550781 -17.76314453 44.03550781 -19 44 C-19 43.01 -19 42.02 -19 41 C-18.33613281 40.96261719 -17.67226562 40.92523438 -16.98828125 40.88671875 C-9.954994 40.46060404 -9.954994 40.46060404 -4 37 C-1.25208308 32.43512227 -0.59767769 28.92760008 -0.48828125 23.6328125 C-0.47033005 22.95322479 -0.45237885 22.27363708 -0.43388367 21.57345581 C-0.38013183 19.42403181 -0.34600064 17.27482523 -0.3125 15.125 C-0.27929562 13.65882413 -0.2448031 12.19267683 -0.20898438 10.7265625 C-0.12442802 7.15125052 -0.05744994 3.57586208 0 0 Z " fill="#F8A604" transform="translate(160,31)"/>
<path d="M0 0 C0.66 0 1.32 0 2 0 C2.50615298 1.26839526 3.00469099 2.53983102 3.5 3.8125 C3.91765625 4.87404297 3.91765625 4.87404297 4.34375 5.95703125 C5 8 5 8 5 11 C2.36 11 -0.28 11 -3 11 C-2.69078116 9.54096742 -2.37751201 8.08279278 -2.0625 6.625 C-1.88847656 5.81289063 -1.71445313 5.00078125 -1.53515625 4.1640625 C-1 2 -1 2 0 0 Z " fill="#D8D8D8" transform="translate(185,48)"/>
</svg>
