<?xml version="1.0" encoding="UTF-8"?>
<svg version="1.1" xmlns="http://www.w3.org/2000/svg" width="250" height="100">
<path d="M0 0 C4.78179418 3.67830322 7.50760494 7.94548007 9.015625 13.78125 C10.00120296 21.40169814 9.43484687 28.33758012 5.015625 34.78125 C0.15846765 40.17579498 -4.36625513 43.29795839 -11.671875 44.0625 C-19.16594536 44.44485053 -24.88467395 43.27462408 -30.984375 38.78125 C-36.51815634 33.29339216 -38.68163499 27.59577407 -39.296875 19.84375 C-39.09947599 13.04006396 -36.17726954 7.05231742 -31.984375 1.78125 C-22.43561749 -5.85775601 -10.31539789 -6.33544122 0 0 Z M-25.359375 10.78125 C-28.08333698 14.13381859 -28.33204645 17.40923898 -28.26171875 21.65234375 C-27.76020726 25.5019742 -26.31384357 27.65485797 -23.984375 30.78125 C-20.46607301 33.39952124 -17.7690161 34.01168448 -13.484375 33.78125 C-8.68203752 33.05116491 -6.30731165 31.27033348 -2.984375 27.78125 C-1.11769459 22.18120877 -1.09881978 16.72947149 -3.546875 11.34375 C-6.60400095 8.12984836 -8.78495101 7.15560694 -12.984375 5.78125 C-17.83581555 5.78125 -21.67557189 7.67910002 -25.359375 10.78125 Z " fill="#010101" transform="translate(84.984375,29.21875)"/>
<path d="M0 0 C5.54009619 4.65871725 9.46128044 9.96606317 10.23828125 17.2265625 C10.46385067 24.51601628 9.27576664 31.24295958 4.3515625 36.890625 C-0.29829539 41.0734666 -4.73056739 43.27324457 -11.08203125 43.1953125 C-12.01337891 43.18886719 -12.94472656 43.18242188 -13.90429688 43.17578125 C-14.86400391 43.15902344 -15.82371094 43.14226562 -16.8125 43.125 C-17.79154297 43.11597656 -18.77058594 43.10695312 -19.77929688 43.09765625 C-22.18646365 43.0741717 -24.59306051 43.03958354 -27 43 C-27.0494009 37.21591441 -27.08572 31.43195136 -27.10986328 25.64770508 C-27.11992707 23.67958436 -27.13357934 21.71147862 -27.15087891 19.7434082 C-27.17511059 16.91614082 -27.18647923 14.08907095 -27.1953125 11.26171875 C-27.20563507 10.38037766 -27.21595764 9.49903656 -27.22659302 8.59098816 C-27.22674408 7.77036392 -27.22689514 6.94973969 -27.22705078 6.10424805 C-27.231492 5.38254929 -27.23593323 4.66085052 -27.24050903 3.9172821 C-27 2 -27 2 -25 -1 C-17.19306956 -5.0315582 -7.6035958 -3.86849611 0 0 Z M-17 7 C-17 15.58 -17 24.16 -17 33 C-8.60234339 33.78873315 -8.60234339 33.78873315 -4.5625 30.875 C-0.89561703 26.76093618 0.07110553 23.99095486 -0.125 18.5 C-1.26403249 13.94387005 -3.01096299 10.56281479 -6.75 7.625 C-9.89549176 6.64314151 -9.89549176 6.64314151 -17 7 Z " fill="#010101" transform="translate(30,29)"/>
<path d="M0 0 C4.48555756 1.12138939 5.25455229 1.98795292 8.1875 5.375 C8.96609375 6.26960938 9.7446875 7.16421875 10.546875 8.0859375 C13.79131514 11.94000175 16.99231464 15.82643651 20.15234375 19.75 C21.95605161 22.02119749 21.95605161 22.02119749 24 24 C24.33 16.41 24.66 8.82 25 1 C28.3 1 31.6 1 35 1 C35 16.51 35 32.02 35 48 C29.41666551 46.8833331 28.6860058 46.07304507 25.125 41.9375 C23.82949219 40.4525 23.82949219 40.4525 22.5078125 38.9375 C21.68023437 37.968125 20.85265625 36.99875 20 36 C18.66814097 34.47787539 17.33501983 32.95685311 16 31.4375 C15.46375 30.81746094 14.9275 30.19742188 14.375 29.55859375 C13.2934584 28.33264177 12.156004 27.156004 11 26 C10.67 32.93 10.34 39.86 10 47 C6.7 47 3.4 47 0 47 C0 31.49 0 15.98 0 0 Z " fill="#000000" transform="translate(212,25)"/>
<path d="M0 0 C3.3 0 6.6 0 10 0 C10.33 4.62 10.66 9.24 11 14 C11.51046875 12.989375 12.0209375 11.97875 12.546875 10.9375 C16.91910856 2.91612126 16.91910856 2.91612126 20 0 C24.23459069 -1.20410106 27.7244672 -0.91153491 32 0 C28.6194661 6.43601646 24.75443401 12.32299616 20.4765625 18.203125 C18.70215501 21.56417199 18.94283611 22.44042708 20 26 C21.28636656 28.34658783 21.28636656 28.34658783 22.94140625 30.609375 C23.81635742 31.86427734 23.81635742 31.86427734 24.70898438 33.14453125 C25.32064453 34.00433594 25.93230469 34.86414062 26.5625 35.75 C27.77395681 37.4726789 28.98369262 39.19656982 30.19140625 40.921875 C30.72967041 41.68081055 31.26793457 42.43974609 31.82250977 43.22167969 C33 45 33 45 33 46 C28.71954046 46.92669743 25.24611804 47.18334437 21 46 C16.69280263 42.18133163 13.84627017 36.93689339 11 32 C10.67 36.62 10.34 41.24 10 46 C6.7 46 3.4 46 0 46 C0 30.82 0 15.64 0 0 Z " fill="#000000" transform="translate(102,26)"/>
<path d="M0 0 C0.66 0 1.32 0 2 0 C4.2276033 5.38780739 6.4511682 10.77725761 8.67114258 16.16821289 C9.425591 17.99873875 10.18110638 19.82882527 10.93774414 21.65844727 C12.03037527 24.30107325 13.1190527 26.94529944 14.20703125 29.58984375 C14.54152786 30.39646957 14.87602448 31.2030954 15.22065735 32.03416443 C17.37857707 37.29323452 19.25337332 42.58994794 21 48 C17.37 48 13.74 48 10 48 C9.67 46.68 9.34 45.36 9 44 C3.72 44 -1.56 44 -7 44 C-7.33 45.32 -7.66 46.64 -8 48 C-11.63 48 -15.26 48 -19 48 C-17.03166968 41.93004208 -14.87627672 36.00246939 -12.4609375 30.09765625 C-12.13461334 29.29388046 -11.80828918 28.49010468 -11.47207642 27.66197205 C-10.78933309 25.98171679 -10.10526805 24.30199802 -9.41992188 22.62280273 C-8.36823106 20.04591451 -7.32049205 17.46744698 -6.2734375 14.88867188 C-5.60699637 13.24990826 -4.94033762 11.61123313 -4.2734375 9.97265625 C-3.95990326 9.20188248 -3.64636902 8.4311087 -3.32333374 7.63697815 C-1.11781032 2.23562065 -1.11781032 2.23562065 0 0 Z M0 25 C-0.66 27.97 -1.32 30.94 -2 34 C-0.02 34 1.96 34 4 34 C3.34 31.03 2.68 28.06 2 25 C1.34 25 0.68 25 0 25 Z " fill="#010101" transform="translate(185,24)"/>
<path d="M0 0 C3.3 0 6.6 0 10 0 C10 1.32 10 2.64 10 4 C10.99 4 11.98 4 13 4 C13.07443657 8.87464091 13.12873667 13.74894728 13.16479492 18.62402344 C13.17983465 20.28065763 13.20027177 21.93725231 13.22631836 23.59375 C13.26291515 25.9818703 13.27977439 28.36946188 13.29296875 30.7578125 C13.30845261 31.49242706 13.32393646 32.22704163 13.33988953 32.98391724 C13.34185014 39.04307102 11.91229646 43.03601985 7.6875 47.375 C2.62372694 50.50909995 -4.30628601 49.2807859 -10 49 C-10 48.01 -10 47.02 -10 46 C-11.32 46 -12.64 46 -14 46 C-14.02689216 44.52093108 -14.04634621 43.04172517 -14.0625 41.5625 C-14.07990234 40.32693359 -14.07990234 40.32693359 -14.09765625 39.06640625 C-14 37 -14 37 -13 36 C-10.15912448 35.71681146 -7.31834785 35.55149787 -4.46875 35.37890625 C-3.6540625 35.25386719 -2.839375 35.12882812 -2 35 C-0.50016915 32.0003383 -0.76097945 28.88053039 -0.68359375 25.5859375 C-0.66281265 24.85629791 -0.64203156 24.12665833 -0.62062073 23.37490845 C-0.55518083 21.04170237 -0.49626632 18.70838279 -0.4375 16.375 C-0.39430947 14.79425905 -0.35069501 13.21352961 -0.30664062 11.6328125 C-0.19950519 7.75532496 -0.09822218 3.87772315 0 0 Z " fill="#050201" transform="translate(151,26)"/>
<path d="M0 0 C1.32 0 2.64 0 4 0 C4.07443657 4.87464091 4.12873667 9.74894728 4.16479492 14.62402344 C4.17983465 16.28065763 4.20027177 17.93725231 4.22631836 19.59375 C4.26291515 21.9818703 4.27977439 24.36946188 4.29296875 26.7578125 C4.30845261 27.49242706 4.32393646 28.22704163 4.33988953 28.98391724 C4.34185014 35.04307102 2.91229646 39.03601985 -1.3125 43.375 C-6.37627306 46.50909995 -13.30628601 45.2807859 -19 45 C-19 44.01 -19 43.02 -19 42 C-18.19175781 41.91363281 -17.38351563 41.82726562 -16.55078125 41.73828125 C-9.59316282 41.06508918 -9.59316282 41.06508918 -3.8125 37.5625 C-0.85615157 33.38283498 -0.80416532 29.64516177 -0.68359375 24.70703125 C-0.66281265 24.00100266 -0.64203156 23.29497406 -0.62062073 22.56755066 C-0.55532509 20.31596449 -0.49633353 18.06426338 -0.4375 15.8125 C-0.39429575 14.2844934 -0.35068084 12.75649836 -0.30664062 11.22851562 C-0.19966426 7.48579438 -0.09834078 3.7429577 0 0 Z " fill="#E19917" transform="translate(160,30)"/>
<path d="M0 0 C0.66 1.32 1.32 2.64 2 4 C-3.81143907 9.96437167 -3.81143907 9.96437167 -8.2578125 10.09765625 C-10.17207031 10.08025391 -10.17207031 10.08025391 -12.125 10.0625 C-13.40632812 10.05347656 -14.68765625 10.04445313 -16.0078125 10.03515625 C-17.48894531 10.01775391 -17.48894531 10.01775391 -19 10 C-19 9.01 -19 8.02 -19 7 C-18.21496094 6.91363281 -17.42992187 6.82726562 -16.62109375 6.73828125 C-9.66573379 5.80805519 -5.3305764 4.60367962 0 0 Z " fill="#E89F21" transform="translate(160,65)"/>
<path d="M0 0 C0 0.99 0 1.98 0 3 C-4.29 3 -8.58 3 -13 3 C-13 2.67 -13 2.34 -13 2 C-11.20873548 1.66451233 -9.41697413 1.33167645 -7.625 1 C-6.62726563 0.814375 -5.62953125 0.62875 -4.6015625 0.4375 C-2 0 -2 0 0 0 Z " fill="#F5A90F" transform="translate(156,71)"/>
</svg>
